<svg width="40" height="32" viewBox="0 0 40 32" fill="none" xmlns="http://www.w3.org/2000/svg">
<g id="Social Icons / White / Dribbble" filter="url(#filter0_d_19_441)">
<path id="BG" opacity="0.1" fill-rule="evenodd" clip-rule="evenodd" d="M4 16C4 7.16344 11.1634 0 20 0C28.8366 0 36 7.16344 36 16C36 24.8366 28.8366 32 20 32C11.1634 32 4 24.8366 4 16Z" fill="white"/>
<path id="Path" fill-rule="evenodd" clip-rule="evenodd" d="M28.5335 15.9882C28.5335 16.5653 28.4747 17.1416 28.3593 17.7033C28.2468 18.2517 28.0801 18.7901 27.8618 19.3048C27.6485 19.8104 27.3839 20.2976 27.0747 20.752C26.7701 21.2035 26.4192 21.627 26.0338 22.0131C25.6475 22.3976 25.2225 22.7475 24.7712 23.0534C24.3154 23.3604 23.8275 23.6246 23.3216 23.8389C22.8061 24.0561 22.2665 24.2226 21.7186 24.3349C21.1561 24.4506 20.5777 24.5096 19.9997 24.5096C19.4214 24.5096 18.843 24.4506 18.2813 24.3349C17.7326 24.2226 17.1929 24.0561 16.6779 23.8389C16.1721 23.6246 15.6837 23.3604 15.2278 23.0534C14.7766 22.7475 14.3516 22.3976 13.9661 22.0131C13.5803 21.627 13.2294 21.2035 12.9244 20.752C12.6169 20.2976 12.3518 19.8104 12.1377 19.3048C11.9193 18.7901 11.7522 18.2517 11.6393 17.7033C11.5251 17.1416 11.4668 16.5653 11.4668 15.9882C11.4668 15.4107 11.5251 14.8331 11.6393 14.2726C11.7523 13.7242 11.9193 13.185 12.1377 12.6711C12.3519 12.1652 12.6169 11.6775 12.9244 11.2231C13.2294 10.7713 13.5803 10.3485 13.9661 9.96195C14.3516 9.57746 14.7766 9.2284 15.2279 8.923C15.6837 8.61466 16.1721 8.35047 16.6779 8.13575C17.193 7.9181 17.7326 7.75127 18.2814 7.63977C18.8431 7.52494 19.4214 7.46667 19.9998 7.46667C20.5777 7.46667 21.1561 7.52494 21.7186 7.63977C22.2665 7.7513 22.8061 7.91813 23.3216 8.13575C23.8275 8.35044 24.3154 8.61466 24.7713 8.923C25.2225 9.2284 25.6476 9.57746 26.0338 9.96195C26.4193 10.3485 26.7701 10.7713 27.0747 11.2231C27.3839 11.6775 27.6485 12.1652 27.8618 12.6711C28.0801 13.185 28.2468 13.7242 28.3593 14.2726C28.4747 14.8331 28.5335 15.4107 28.5335 15.9882ZM16.8904 9.40605C14.8582 10.3643 13.3414 12.2342 12.8685 14.4878C13.0606 14.4894 16.0974 14.5277 19.5963 13.5994C18.335 11.3617 16.9875 9.53549 16.8904 9.40605ZM20.2001 14.72C16.4479 15.8417 12.8472 15.761 12.7181 15.756C12.716 15.8342 12.7122 15.9099 12.7122 15.9882C12.7122 17.8576 13.4185 19.5619 14.5794 20.8506C14.5769 20.8468 16.5712 17.3138 20.5039 16.0439C20.5989 16.0123 20.6956 15.984 20.7914 15.9566C20.6085 15.543 20.4089 15.1286 20.2001 14.72ZM24.8125 10.5266C23.5295 9.39689 21.8448 8.71164 19.9997 8.71164C19.4076 8.71164 18.833 8.78321 18.2825 8.91552C18.3917 9.062 19.7605 10.8753 21.0068 13.1604C23.7566 12.131 24.7945 10.5532 24.8125 10.5266ZM21.2882 17.1624C21.2719 17.1677 21.2557 17.1724 21.2398 17.1782C16.9401 18.675 15.536 21.6914 15.5208 21.7244C16.7579 22.6851 18.3097 23.2647 19.9998 23.2647C21.009 23.2647 21.9703 23.0595 22.8449 22.688C22.737 22.0522 22.3136 19.8237 21.2882 17.1624ZM24.072 22.0231C25.7083 20.9205 26.8705 19.1696 27.1946 17.1415C27.0446 17.0933 25.0058 16.4487 22.6536 16.8253C23.6095 19.4484 23.9978 21.5846 24.072 22.0231ZM21.5678 14.2448C21.7369 14.5918 21.9007 14.945 22.0519 15.2999C22.1057 15.4273 22.1582 15.5521 22.2095 15.6769C24.7129 15.3623 27.1793 15.8916 27.2847 15.9132C27.2681 14.1882 26.6501 12.6049 25.6276 11.3654C25.6138 11.3849 24.445 13.0714 21.5678 14.2448Z" fill="white"/>
</g>
<defs>
<filter id="filter0_d_19_441" x="0" y="0" width="40" height="40" filterUnits="userSpaceOnUse" color-interpolation-filters="sRGB">
<feFlood flood-opacity="0" result="BackgroundImageFix"/>
<feColorMatrix in="SourceAlpha" type="matrix" values="0 0 0 0 0 0 0 0 0 0 0 0 0 0 0 0 0 0 127 0" result="hardAlpha"/>
<feOffset dy="4"/>
<feGaussianBlur stdDeviation="2"/>
<feComposite in2="hardAlpha" operator="out"/>
<feColorMatrix type="matrix" values="0 0 0 0 0 0 0 0 0 0 0 0 0 0 0 0 0 0 0.25 0"/>
<feBlend mode="normal" in2="BackgroundImageFix" result="effect1_dropShadow_19_441"/>
<feBlend mode="normal" in="SourceGraphic" in2="effect1_dropShadow_19_441" result="shape"/>
</filter>
</defs>
</svg>
